<svg width="682" height="484" viewBox="0 0 682 484" fill="none" xmlns="http://www.w3.org/2000/svg">
<g clip-path="url(#clip0_60_2)">
<path opacity="0.1" d="M580.291 169.881C577.659 149.429 572.516 129.817 561.76 111.95C541.755 78.7437 505.818 58.6958 469.323 48.5247C438.748 39.9997 405.814 37.5359 375.315 46.3444C341.834 56.014 313.738 78.275 283.588 95.7284C261.606 108.45 238.402 118.992 214.684 128.062C195.487 135.399 171.092 139.509 155.313 153.452C145.638 161.999 137.12 171.876 129.815 182.505C100.364 225.337 90.7655 280.095 95.3082 331.191C98.4749 366.806 108.292 402.825 130.295 431.038C161.166 470.611 214.16 490.114 264.162 485.197C320.912 479.615 374.725 445.744 431.159 453.877C459.255 457.921 486.14 472.333 514.401 469.651C542.257 467.013 566.095 447.892 582.901 425.555C596.376 407.643 605.341 385.982 606.171 363.438C607.066 339.018 596.005 316.768 590.446 293.45C580.739 252.689 585.576 211.012 580.28 169.87L580.291 169.881Z" fill="#F07D24"/>
<path d="M332.83 312.277L243.116 482.328" stroke="#1C2123" stroke-width="1.06" stroke-miterlimit="10"/>
<path d="M248.984 312.277L334.786 482.328" stroke="#1C2123" stroke-width="1.06" stroke-miterlimit="10"/>
<path d="M236.24 304.831H343.871V319.691H236.24V304.831Z" fill="#3A4468"/>
<path d="M422.386 383.168L412.291 444.815L383.207 443.585L387.781 381.18L422.386 383.168Z" fill="#D4A486"/>
<path d="M414.563 437.969L466.296 461.568C469.672 463.272 471.47 467.058 470.618 470.749H379.359L382.766 437.559L414.594 437.938L414.563 437.969Z" fill="white"/>
<path d="M377.75 470.749H471.785V480.561H377.75V470.749Z" fill="black"/>
<path d="M390.179 452.987C390.242 457.435 393.932 461 398.38 460.906C402.828 460.811 406.393 457.151 406.298 452.703C406.235 448.255 402.544 444.689 398.096 444.784C393.648 444.847 390.084 448.538 390.179 452.987Z" stroke="black" stroke-width="0.84" stroke-linecap="round" stroke-linejoin="round"/>
<path d="M432.039 442.292L424.909 448.633" stroke="black" stroke-width="0.84" stroke-linecap="round" stroke-linejoin="round"/>
<path d="M438.726 445.541L431.534 451.914" stroke="black" stroke-width="0.84" stroke-linecap="round" stroke-linejoin="round"/>
<path d="M445.792 449.169L438.284 455.826" stroke="black" stroke-width="0.84" stroke-linecap="round" stroke-linejoin="round"/>
<path d="M448.379 291.075L429.893 416.894L373.239 417.651L391.661 248.389H410.115C433.016 248.389 450.871 268.296 448.379 291.075Z" fill="#1C2123"/>
<path d="M351.978 371.148L304.629 414.465L283.147 394.81L326.742 347.328L351.978 371.148Z" fill="#E7BB9E"/>
<path d="M310.78 410.68L335.228 462.042C336.742 465.513 335.638 469.582 332.609 471.854L262.706 413.172L286.617 389.952L310.749 410.711L310.78 410.68Z" fill="white"/>
<path d="M261.492 412.034L333.506 472.513L327.197 480.027L255.183 419.548L261.492 412.034Z" fill="black"/>
<path d="M282.421 406.515C279.614 409.986 280.15 415.065 283.589 417.873C287.059 420.681 292.137 420.144 294.945 416.706C297.752 413.267 297.216 408.156 293.778 405.348C290.308 402.54 285.229 403.076 282.421 406.515Z" stroke="black" stroke-width="0.84" stroke-linecap="round" stroke-linejoin="round"/>
<path d="M321.348 425.255L311.821 425.508" stroke="black" stroke-width="0.84" stroke-linecap="round" stroke-linejoin="round"/>
<path d="M324.408 432.007L314.787 432.259" stroke="black" stroke-width="0.84" stroke-linecap="round" stroke-linejoin="round"/>
<path d="M327.468 439.327L317.436 439.611" stroke="black" stroke-width="0.84" stroke-linecap="round" stroke-linejoin="round"/>
<path d="M235.073 247.253L396.835 249.083C396.835 249.083 432.228 250.66 431.471 285.112C431.25 295.555 427.433 305.62 421.219 314.012L341.095 404.148L294.976 371.211L355.984 305.904L274.031 305.525C240.214 305.367 228.354 274.323 235.073 241.164V247.253Z" fill="#2E353A"/>
<path d="M356.016 305.904L373.46 297.07" stroke="#1C2123" stroke-width="0.79" stroke-miterlimit="10"/>
<path d="M353.587 195.638L421.219 208.731L418.506 225.8L333.682 228.828L314.345 192.389L353.587 195.638Z" fill="#D4A486"/>
<path d="M354.028 153.804L363.46 202.012C363.46 202.012 329.013 226.62 329.707 224.569C330.401 222.519 322.42 153.772 322.42 153.772H354.06L354.028 153.804Z" fill="#D4A486"/>
<path d="M322.294 107.679C322.294 107.679 348.855 111.464 354.281 131.845C361.378 158.41 364.091 162.228 364.091 162.228L328.004 167.465L322.294 107.647V107.679Z" fill="#F07D24"/>
<path d="M333.808 138.313L338.066 231.384H240.94L236.271 118.626C236.176 109.54 247.028 102.252 256.113 102.599L278.825 103.546L322.294 107.647L333.808 138.313Z" fill="#F07D24"/>
<path d="M335.101 166.455L332.924 137.682" stroke="#D2933E" stroke-width="0.79" stroke-miterlimit="10"/>
<path d="M275.513 103.577C275.513 103.577 239.583 97.8037 230.309 108.814C218.638 122.696 210.247 146.39 210.247 146.39L249.236 158.789L275.513 103.609V103.577Z" fill="#F07D24"/>
<path d="M249.236 158.757L256.081 161.187L266.712 134.433" stroke="#D2933E" stroke-width="0.79" stroke-miterlimit="10"/>
<path d="M249.236 158.757L226.114 210.625L195.168 183.681L210.247 146.358L249.236 158.757Z" fill="#E7BB9E"/>
<path d="M229.584 201.948L302.61 217.534L299.676 231.384L214.001 233.592C214.001 233.592 172.551 224.38 195.2 183.681L229.615 201.948H229.584Z" fill="#E7BB9E"/>
<path d="M302.61 217.534C302.61 217.534 338.319 203.558 348.066 224.948L347.435 233.593L290.055 236.338L302.61 217.566V217.534Z" fill="#E7BB9E"/>
<path d="M229.584 201.949L212.297 199.551" stroke="#C98F7E" stroke-width="0.52" stroke-linecap="round" stroke-linejoin="round"/>
<path d="M322.957 59.9443C322.073 65.6232 325.827 70.955 331.348 71.8384C336.868 72.7218 342.041 68.8097 342.893 63.0992C343.776 57.4203 340.022 52.0884 334.502 51.2051C328.982 50.3217 323.808 54.2338 322.925 59.9443H322.957Z" fill="#CD937E"/>
<path d="M315.449 83.985L313.304 108.814C312.578 117.522 306.963 121.75 298.667 120.929C291.569 120.235 284.093 116.134 285.071 108.467L290.276 69.5669L315.48 83.985H315.449Z" fill="#E7BB9E"/>
<path d="M314.092 100.485C314.092 100.485 293.714 100.453 289.424 77.1384C288.068 69.7874 315.733 81.4291 315.733 81.4291L314.092 100.485Z" fill="#1F2326"/>
<path d="M307.373 90.5471C321.537 91.809 334.25 81.2715 335.669 69.3458L338.571 44.3902C340.369 29.4673 330.401 15.8064 316.017 13.5033C301.285 11.1687 284.85 21.2014 282.516 36.4398L280.497 55.9058C278.668 73.4157 290.528 87.8654 307.373 90.5155V90.5471Z" fill="#E7BB9E"/>
<path d="M321.663 57.3887L321.758 65.6231L318.256 65.4653" stroke="#322B29" stroke-width="0.53" stroke-linecap="round" stroke-linejoin="round"/>
<path d="M307.878 44.2324C307.878 44.2324 313.714 44.2324 313.588 46.6933C313.588 46.6933 313.43 48.3338 308.351 48.2392C303.273 48.1445 301.979 47.6397 301.632 46.0307C301.317 44.4532 305.165 44.0115 307.878 44.2324Z" fill="#1F2326"/>
<path d="M331.284 46.3461C331.284 46.3461 326.521 45.4312 325.953 47.6712C325.953 47.6712 325.606 49.2171 329.77 49.9112C333.934 50.6053 335.354 50.1951 335.858 48.9647C336.426 47.5765 333.587 46.5669 331.316 46.3145L331.284 46.3461Z" fill="#1F2326"/>
<path d="M326.994 56.2212C326.837 57.6094 327.783 58.8714 329.139 59.0291C330.496 59.1869 331.694 58.2089 331.852 56.8207C332.01 55.4325 331.064 54.1705 329.707 54.0128C328.351 53.855 327.152 54.8331 326.994 56.2212Z" fill="#1F2326"/>
<path d="M305.702 53.6656C305.544 55.0538 306.49 56.3157 307.847 56.4735C309.203 56.6312 310.402 55.6532 310.559 54.265C310.717 52.8768 309.771 51.6149 308.414 51.4571C307.058 51.2994 305.859 52.2774 305.702 53.6656Z" fill="#1F2326"/>
<path d="M322.42 71.1756C322.42 71.1756 317.405 73.9204 310.307 70.7339" stroke="#322B29" stroke-width="0.53" stroke-linecap="round" stroke-linejoin="round"/>
<path d="M335.511 2.65039C330.243 -0.0628642 316.521 -3.56485 312.641 8.48703C298.919 6.49942 276.933 5.26899 273.904 17.1C269.488 34.4522 280.781 52.7509 280.781 52.7509L284.156 54.7701C284.156 54.7701 293.399 50.7317 292.516 29.5305C292.516 29.5305 323.903 39.3739 339.423 32.3069C354.943 25.2082 351.378 10.7901 335.511 2.65039Z" fill="#2E353A"/>
<path d="M267.501 54.3285C266.649 59.9758 270.34 65.2446 275.797 66.0964C281.254 66.9483 286.364 63.0992 287.248 57.4519C288.099 51.8045 284.409 46.5358 278.951 45.6839C273.494 44.8321 268.384 48.6811 267.501 54.3285Z" fill="#E7BB9E"/>
<path d="M280.371 58.8716C280.371 58.8716 281.506 51.4575 274.472 51.5522" stroke="#322B29" stroke-width="0.53" stroke-linecap="round" stroke-linejoin="round"/>
<path d="M273.21 103.23L322.294 107.678C322.294 107.678 320.559 124.273 300.244 123.39C276.302 122.349 273.21 103.23 273.21 103.23Z" fill="#E7BB9E"/>
<path d="M129.712 245.076L181.509 482.328" stroke="#1C2123" stroke-width="1.06" stroke-miterlimit="10"/>
<path d="M133.624 245.076L81.8274 482.328" stroke="#1C2123" stroke-width="1.06" stroke-miterlimit="10"/>
<path d="M548.691 245.076L600.488 482.328" stroke="#1C2123" stroke-width="1.06" stroke-miterlimit="10"/>
<path d="M552.603 245.076L500.806 482.328" stroke="#1C2123" stroke-width="1.06" stroke-miterlimit="10"/>
<path d="M35.4249 232.204H620.834V257.948H35.4249V232.204Z" fill="#3A4468"/>
<path d="M105.77 190.842C105.77 190.842 99.3663 230.058 128.955 231.478C158.544 232.929 151.51 190.464 151.51 190.464L105.77 190.842Z" fill="#2E353A"/>
<path d="M154.728 222.802C162.425 223.023 168.891 216.934 169.112 209.236C169.333 201.538 163.245 195.07 155.548 194.849C147.851 194.628 141.384 200.717 141.163 208.415C140.943 216.113 147.031 222.581 154.728 222.802ZM155.422 199.298C160.658 199.455 164.79 203.841 164.633 209.078C164.475 214.315 160.09 218.448 154.854 218.29C149.617 218.133 145.485 213.747 145.643 208.51C145.8 203.273 150.185 199.14 155.422 199.298Z" fill="#2E353A"/>
<path d="M682 482.328H-5.44132e-06" stroke="#DED5CD" stroke-width="1.06" stroke-miterlimit="10"/>
<path d="M307.247 232.204H378.255V224.19H307.247C305.039 224.19 303.241 225.989 303.241 228.197C303.241 230.406 305.039 232.204 307.247 232.204Z" fill="#1C2123"/>
<path d="M368.917 232.204H470.839C476.264 232.204 481.028 228.576 482.479 223.37L500.838 157.463C502.447 151.627 498.094 145.853 492.037 145.853H397.781C394.153 145.853 390.999 148.282 390.084 151.784L368.949 232.204H368.917Z" fill="#2E353A"/>
<path d="M439.041 201.632C434.128 201.632 430.146 197.649 430.146 192.735C430.146 187.822 434.128 183.838 439.041 183.838C443.954 183.838 447.937 187.822 447.937 192.735C447.937 197.649 443.954 201.632 439.041 201.632Z" fill="white"/>
<path d="M452.637 40.9194H579.984C583.207 40.9194 585.82 43.5326 585.82 46.7561V84.1422C585.82 87.3657 583.207 89.9788 579.984 89.9788H452.637C449.414 89.9788 446.802 87.3657 446.802 84.1422V46.7561C446.802 43.5326 449.414 40.9194 452.637 40.9194Z" fill="#E0E0E0"/>
<path d="M499.986 83.1958L491.816 99.0336C490.807 100.99 488.031 101.084 486.895 99.2229L477.116 83.1958H499.986Z" fill="#E0E0E0"/>
<path d="M567.776 58.5869H464.814" stroke="#84817E" stroke-width="1.06" stroke-linecap="round" stroke-linejoin="round"/>
<path d="M567.776 72.2793H513.866" stroke="#84817E" stroke-width="1.06" stroke-linecap="round" stroke-linejoin="round"/>
</g>
<defs>
<clipPath id="clip0_60_2">
<rect width="682" height="484" fill="white" transform="matrix(-1 0 0 1 682 0)"/>
</clipPath>
</defs>
</svg>
